<svg xmlns="http://www.w3.org/2000/svg" width="1004" height="369" fill="none" viewBox="0 0 1004 369"><path fill="#000" d="M302.815 100h-19.781V22.972H257.62V6.466h70.609v16.506h-25.414zm57.784-79.255q0 5.24-.393 10.087-.261 4.847-.524 6.812h1.048q2.358-3.667 5.502-5.895a20.6 20.6 0 0 1 6.943-3.406q3.93-1.179 8.253-1.179 7.73 0 13.493 2.751 5.764 2.75 8.908 8.515 3.276 5.764 3.275 14.934V100h-19.519V58.211q0-7.729-2.882-11.528-2.751-3.93-8.646-3.93t-9.301 2.751q-3.274 2.751-4.716 7.991-1.44 5.24-1.441 12.838V100H341.08V.44h19.519zm96.053 6.419q9.956 0 17.03 3.799 7.205 3.799 11.135 11.004t3.93 17.685v9.432h-46.112q.262 8.253 4.847 12.969 4.716 4.716 12.969 4.716 6.944 0 12.576-1.31 5.633-1.44 11.659-4.323v15.065A44 44 0 0 1 473.551 100q-5.764 1.31-14.017 1.31-10.742 0-18.995-3.93-8.253-4.06-12.969-12.183t-4.716-20.436q0-12.576 4.192-20.829 4.323-8.384 11.921-12.576t17.685-4.192m.131 13.886q-5.632 0-9.432 3.668-3.668 3.668-4.323 11.397h27.379q0-4.323-1.572-7.729-1.441-3.405-4.454-5.371-3.013-1.965-7.598-1.965M559.695 100h-19.519V6h53.579v16.71h-34.06v24.104h31.702v16.244h-31.702zm70.324-71.526V100H610.5V28.474zM620.325.44q4.323 0 7.467 2.096 3.144 1.965 3.144 7.467 0 5.37-3.144 7.467t-7.467 2.096q-4.454 0-7.598-2.096-3.013-2.095-3.013-7.467 0-5.502 3.013-7.467Q615.871.44 620.325.44m53.276 26.724q6.55 0 11.79 2.62t8.908 7.86h.524l1.572-9.17h16.506v71.657q0 10.218-4.061 17.161-3.93 6.943-11.921 10.48-7.99 3.668-19.781 3.668-7.597 0-14.148-.917a58 58 0 0 1-12.576-3.275v-15.589a71 71 0 0 0 8.908 3.013 56.5 56.5 0 0 0 9.301 1.834q4.848.655 9.694.655 7.599 0 11.266-4.061 3.8-4.06 3.799-12.183v-1.441q0-2.227.131-4.585.263-2.359.393-4.192h-.524q-3.668 5.633-8.777 8.122t-11.528 2.489q-12.706 0-19.912-9.694-7.074-9.825-7.074-27.248 0-11.79 3.275-20.043 3.276-8.385 9.432-12.707 6.288-4.454 14.803-4.454m6.157 15.851q-4.585 0-7.729 2.489-3.013 2.358-4.585 7.205-1.44 4.716-1.441 11.921 0 10.742 3.406 16.113 3.406 5.24 10.611 5.24 3.8 0 6.55-.917 2.751-1.048 4.454-3.275 1.835-2.358 2.751-6.026.918-3.668.917-8.908v-2.358q0-7.73-1.572-12.445-1.572-4.716-4.847-6.812-3.274-2.227-8.515-2.227m119.186-14.541V100H784.01l-2.62-9.17h-1.048a19 19 0 0 1-5.764 6.026q-3.407 2.227-7.598 3.275a31.8 31.8 0 0 1-8.646 1.179q-7.599 0-13.362-2.751-5.764-2.75-8.908-8.515-3.144-5.764-3.144-14.934V28.474h19.519v41.789q0 7.598 2.751 11.528t8.777 3.93 9.301-2.751q3.405-2.751 4.716-7.991 1.44-5.24 1.441-12.838V28.474zm60.42-1.31q1.441 0 3.406.131 1.965.13 3.144.393l-1.441 18.34q-.917-.262-2.751-.393-1.702-.262-3.013-.262-3.798 0-7.336 1.048a18.9 18.9 0 0 0-6.419 3.013q-2.75 2.096-4.454 5.633-1.572 3.406-1.572 8.515V100h-19.519V28.474h14.803l2.882 12.052h.917a29.5 29.5 0 0 1 5.24-6.681 25.5 25.5 0 0 1 7.205-4.847q4.192-1.834 8.908-1.834m46.449 0q9.957 0 17.03 3.799 7.205 3.799 11.135 11.004t3.93 17.685v9.432h-46.112q.262 8.253 4.847 12.969 4.716 4.716 12.969 4.716 6.943 0 12.576-1.31 5.634-1.44 11.659-4.323v15.065A44 44 0 0 1 922.712 100q-5.764 1.31-14.017 1.31-10.742 0-18.995-3.93-8.253-4.06-12.969-12.183t-4.716-20.436q0-12.576 4.192-20.829 4.323-8.384 11.921-12.576 7.599-4.192 17.685-4.192m.131 13.886q-5.632 0-9.432 3.668-3.668 3.668-4.323 11.397h27.379q0-4.323-1.572-7.729-1.441-3.405-4.454-5.371-3.012-1.965-7.598-1.965m97.706 37.728c0 4.803-1.14 8.908-3.41 12.314q-3.405 4.978-10.217 7.598t-16.899 2.62q-7.467 0-12.838-1.048-5.372-.917-10.742-3.144V81.005q5.764 2.62 12.445 4.323t11.79 1.703q5.764 0 8.122-1.703 2.489-1.703 2.489-4.454 0-1.834-1.048-3.275-.918-1.44-4.192-3.275-3.276-1.835-10.218-4.716-6.681-2.882-11.004-5.633-4.323-2.882-6.419-6.812-2.096-4.061-2.096-10.087 0-9.955 7.729-14.934 7.728-4.978 20.567-4.978 6.68 0 12.707 1.31 6.025 1.31 12.444 4.323l-5.894 14.017a101 101 0 0 0-6.812-2.751 48 48 0 0 0-6.419-1.834 29.5 29.5 0 0 0-6.288-.655q-4.323 0-6.55 1.179-2.096 1.179-2.096 3.537 0 1.702 1.048 3.144 1.179 1.31 4.323 2.882 3.275 1.572 9.563 4.192 6.156 2.49 10.611 5.24 4.453 2.62 6.814 6.681 2.49 3.93 2.49 10.349M61.08 197.552q-.512-2.176-1.536-6.4a321 321 0 0 0-2.048-9.216 518 518 0 0 0-2.176-9.088q-1.024-4.224-1.408-6.144H53.4q-.384 1.92-1.408 6.144-.896 4.096-2.048 9.088-1.152 4.864-2.176 9.216a595 595 0 0 0-1.536 6.656L40.6 222H20.12L.28 152.112h18.944l8.064 30.976q.896 3.2 1.536 7.68.768 4.48 1.408 8.704.64 4.097.896 6.528h.512q.128-1.792.512-4.736.384-3.072.896-6.272a122 122 0 0 0 1.024-5.76q.511-2.688.768-3.584l8.576-33.536h20.992l8.192 33.536q.511 1.792 1.152 5.76.768 3.968 1.28 8.064.64 4.097.64 6.528h.512q.256-2.176.896-6.272.64-4.224 1.408-8.832.896-4.608 1.792-7.808l8.32-30.976h18.688L87.192 222H66.456zm76.601-52.992q0 5.12-.384 9.856-.256 4.736-.512 6.656h1.024q2.304-3.584 5.376-5.76a20.1 20.1 0 0 1 6.784-3.328q3.84-1.152 8.064-1.152 7.552 0 13.184 2.688t8.704 8.32q3.2 5.632 3.2 14.592V222h-19.072v-40.832q0-7.552-2.816-11.264-2.688-3.84-8.448-3.84t-9.088 2.688q-3.2 2.688-4.608 7.808t-1.408 12.544V222h-19.072v-97.28h19.072zm128.541 42.368q0 8.704-2.432 15.488-2.304 6.784-6.784 11.52-4.352 4.608-10.624 7.04-6.272 2.304-14.208 2.304-7.296 0-13.568-2.304-6.144-2.432-10.624-7.04-4.48-4.736-7.04-11.52-2.432-6.784-2.432-15.488 0-11.647 4.096-19.584 4.096-8.064 11.776-12.288t18.176-4.224q9.856 0 17.408 4.224t11.904 12.288q4.352 7.936 4.352 19.584m-48.256 0q0 6.912 1.408 11.648 1.536 4.608 4.736 7.04 3.2 2.304 8.32 2.304t8.192-2.304q3.2-2.432 4.608-7.04 1.536-4.736 1.536-11.648t-1.536-11.52q-1.408-4.608-4.608-6.912t-8.32-2.304q-7.552 0-11.008 5.248-3.328 5.12-3.328 15.488m146.036 14.336q0 7.04-3.328 12.032-3.329 4.864-9.984 7.424-6.656 2.56-16.512 2.56-7.296 0-12.544-1.024-5.248-.895-10.496-3.072V203.44q5.632 2.56 12.16 4.224t11.52 1.664q5.632 0 7.936-1.664 2.432-1.664 2.432-4.352 0-1.792-1.024-3.2-.896-1.408-4.096-3.2t-9.984-4.608q-6.528-2.816-10.752-5.504-4.224-2.816-6.272-6.656-2.048-3.968-2.048-9.856 0-9.727 7.552-14.592 7.552-4.864 20.096-4.864 6.528 0 12.416 1.28t12.16 4.224l-5.76 13.696a99 99 0 0 0-6.656-2.688 47 47 0 0 0-6.272-1.792 29 29 0 0 0-6.144-.64q-4.224 0-6.4 1.152-2.048 1.152-2.048 3.456 0 1.664 1.024 3.072 1.152 1.28 4.224 2.816 3.2 1.536 9.344 4.096 6.017 2.432 10.368 5.12 4.352 2.56 6.656 6.528 2.432 3.84 2.432 10.112m33.929-56.704q0 5.12-.384 9.856-.256 4.736-.512 6.656h1.024q2.304-3.584 5.376-5.76a20.1 20.1 0 0 1 6.784-3.328q3.84-1.152 8.064-1.152 7.552 0 13.184 2.688t8.704 8.32q3.2 5.632 3.2 14.592V222h-19.072v-40.832q0-7.552-2.816-11.264-2.688-3.84-8.448-3.84t-9.088 2.688q-3.2 2.688-4.608 7.808t-1.408 12.544V222h-19.072v-97.28h19.072zm93.725 6.144q14.08 0 21.504 6.144 7.552 6.016 7.552 18.56V222H507.4l-3.712-9.472h-.512q-2.945 3.713-6.144 6.144-3.072 2.432-7.168 3.456-3.968 1.152-9.856 1.152-6.144 0-11.136-2.304-4.864-2.432-7.68-7.296-2.816-4.992-2.816-12.544 0-11.136 7.808-16.384 7.807-5.376 23.424-5.888l12.16-.384v-3.072q0-5.504-2.944-8.064-2.816-2.56-7.936-2.56t-9.984 1.536a75 75 0 0 0-9.728 3.584l-6.272-12.928q5.632-2.945 12.416-4.608 6.912-1.664 14.336-1.664m2.688 39.168q-9.216.256-12.8 3.328t-3.584 8.064q0 4.352 2.56 6.272 2.56 1.792 6.656 1.792 6.144 0 10.368-3.584 4.224-3.713 4.224-10.368v-5.76zm84.802-39.04q11.776 0 19.072 9.216 7.296 9.089 7.296 26.88 0 11.904-3.456 20.096-3.456 8.064-9.472 12.16t-13.952 4.096q-4.992 0-8.704-1.28-3.584-1.28-6.144-3.328t-4.48-4.352h-1.024q.511 2.432.768 5.12.256 2.56.256 5.12v28.16h-19.072V152.112h15.488l2.688 9.088h.896a26 26 0 0 1 4.608-5.12q2.688-2.431 6.4-3.84 3.84-1.408 8.832-1.408m-6.144 15.232q-4.992 0-7.936 2.048t-4.352 6.272q-1.28 4.096-1.408 10.368v2.048q0 6.784 1.28 11.52 1.28 4.608 4.352 7.04t8.32 2.432q4.352 0 7.168-2.432t4.224-7.168 1.408-11.52q0-10.24-3.2-15.36-3.072-5.248-9.856-5.248m77.032-15.232q9.728 0 16.64 3.712 7.04 3.713 10.88 10.752t3.84 17.28v9.216h-45.056q.256 8.064 4.736 12.672 4.608 4.608 12.672 4.608 6.785 0 12.288-1.28 5.504-1.409 11.392-4.224v14.72a43 43 0 0 1-10.88 3.712q-5.632 1.28-13.696 1.28-10.496 0-18.56-3.84-8.064-3.968-12.672-11.904t-4.608-19.968q0-12.288 4.096-20.352 4.224-8.191 11.648-12.288t17.28-4.096m.128 13.568q-5.504 0-9.216 3.584-3.584 3.583-4.224 11.136h26.752q0-4.224-1.536-7.552-1.408-3.328-4.352-5.248t-7.424-1.92m68.841 58.88q-11.648 0-19.072-9.088-7.296-9.216-7.296-27.008 0-17.92 7.424-27.136t19.456-9.216q4.992 0 8.832 1.408 3.84 1.28 6.528 3.584a23 23 0 0 1 4.736 5.248h.64q-.384-2.048-.896-5.888a63 63 0 0 1-.512-8.064v-22.4h19.072V222h-14.592l-3.712-9.088h-.768q-1.793 2.816-4.608 5.248-2.688 2.304-6.4 3.712t-8.832 1.408m6.656-15.232q7.937 0 11.136-4.608 3.2-4.736 3.328-14.08v-2.048q0-10.24-3.2-15.616-3.072-5.376-11.52-5.376-6.272 0-9.856 5.504-3.584 5.376-3.584 15.616t3.584 15.488q3.584 5.12 10.112 5.12"/><path fill="#000" d="M615.4 338h-19.328v-30h-36.224v30H540.52v-91.392h19.328V288h36.224v-41.392H615.4zm40.531-69.888V338h-19.072v-69.888zm-9.472-27.392q4.224 0 7.296 2.048 3.072 1.92 3.072 7.296 0 5.249-3.072 7.296t-7.296 2.048q-4.352 0-7.424-2.048-2.944-2.048-2.944-7.296 0-5.376 2.944-7.296 3.072-2.048 7.424-2.048m78.168 76.544q0 7.04-3.328 12.032-3.329 4.864-9.984 7.424-6.656 2.56-16.512 2.56-7.296 0-12.544-1.024-5.248-.895-10.496-3.072V319.44q5.632 2.56 12.16 4.224t11.52 1.664q5.632 0 7.936-1.664 2.432-1.664 2.432-4.352 0-1.792-1.024-3.2-.896-1.408-4.096-3.2t-9.984-4.608q-6.528-2.816-10.752-5.504-4.224-2.816-6.272-6.656-2.048-3.968-2.048-9.856 0-9.728 7.552-14.592t20.096-4.864q6.528 0 12.416 1.28t12.16 4.224l-5.76 13.696a99 99 0 0 0-6.656-2.688 47 47 0 0 0-6.272-1.792 29 29 0 0 0-6.144-.64q-4.224 0-6.4 1.152-2.048 1.152-2.048 3.456 0 1.663 1.024 3.072 1.152 1.28 4.224 2.816 3.2 1.536 9.344 4.096 6.016 2.432 10.368 5.12 4.352 2.56 6.656 6.528 2.432 3.84 2.432 10.112m44.297 6.784q3.2 0 6.144-.64a75 75 0 0 0 5.888-1.536v14.208q-3.072 1.28-7.68 2.176-4.48 1.024-9.856 1.024-6.272 0-11.264-2.048-4.864-2.048-7.808-7.04-2.816-5.12-2.816-14.08v-33.664h-9.088v-8.064l10.496-6.4 5.504-14.72h12.16v14.848h19.584v14.336h-19.584v33.664q0 3.968 2.304 6.016 2.304 1.92 6.016 1.92m89.548-21.12q0 8.704-2.432 15.488-2.304 6.785-6.784 11.52-4.352 4.608-10.624 7.04-6.272 2.304-14.208 2.304-7.296 0-13.568-2.304-6.144-2.432-10.624-7.04-4.48-4.736-7.04-11.52-2.432-6.784-2.432-15.488 0-11.648 4.096-19.584 4.096-8.064 11.776-12.288t18.176-4.224q9.856 0 17.408 4.224t11.904 12.288q4.352 7.936 4.352 19.584m-48.256 0q0 6.912 1.408 11.648 1.536 4.608 4.736 7.04 3.2 2.304 8.32 2.304t8.192-2.304q3.2-2.432 4.608-7.04 1.536-4.736 1.536-11.648t-1.536-11.52q-1.409-4.608-4.608-6.912-3.2-2.304-8.32-2.304-7.552 0-11.008 5.248-3.328 5.12-3.328 15.488m103.058-36.096q1.408 0 3.328.128 1.92.127 3.072.384l-1.408 17.92q-.896-.256-2.688-.384-1.664-.256-2.944-.256-3.712 0-7.168 1.024a18.4 18.4 0 0 0-6.272 2.944q-2.688 2.048-4.352 5.504-1.536 3.328-1.536 8.32V338h-19.072v-69.888h14.464l2.816 11.776h.896a28.8 28.8 0 0 1 5.12-6.528 24.9 24.9 0 0 1 7.04-4.736q4.096-1.792 8.704-1.792m17.226 1.28h20.864l13.184 39.296q.64 1.92 1.024 3.84.511 1.92.768 3.968.384 2.048.512 4.352h.384a64 64 0 0 1 1.024-6.272 97 97 0 0 1 1.664-5.888l12.928-39.296h20.478l-29.566 78.848q-2.688 7.168-7.04 12.032-4.224 4.865-9.856 7.296t-12.288 2.432q-3.2 0-5.632-.384a42 42 0 0 1-4.096-.64v-15.104q1.408.256 3.328.512 2.048.256 4.224.256 3.968 0 6.784-1.664 2.944-1.663 4.864-4.608a26 26 0 0 0 3.072-6.144l1.152-3.456z"/><path fill="#000" d="M540 6h20v332h-20zm268 186v-20h196v20zM0 308v-20h489v20z"/></svg>